<svg xmlns="http://www.w3.org/2000/svg" width="20" height="19" viewBox="0 0 20 19">
    <path fill="#FFF" d="M7.545 15.398c1.004 0 1.818.806 1.818 1.801 0 .995-.814 1.801-1.818 1.801s-1.818-.806-1.818-1.8c0-.996.814-1.802 1.818-1.802zm9 0c1.004 0 1.818.806 1.818 1.801 0 .995-.814 1.801-1.818 1.801s-1.818-.806-1.818-1.8c0-.996.814-1.802 1.818-1.802zM4.273 0c.476 0 .887.333.98.796l.658 3.256H19c.627 0 1.1.566.982 1.176l-1.31 6.807c-.25 1.24-1.36 2.126-2.618 2.102H8.121c-1.277.024-2.388-.861-2.636-2.1L3.453 1.98H1c-.552 0-1-.443-1-.99C0 .443.448 0 1 0zM17.79 6.033H6.311l1.135 5.616c.06.3.328.513.656.507h7.971c.309.006.577-.207.635-.5l1.083-5.623z"/>
</svg>
