<svg xmlns="http://www.w3.org/2000/svg" width="16" height="11" viewBox="0 0 16 11">
    <path fill="#FAFAFC" d="M15.226 9.477c.427 0 .774.34.774.761s-.347.762-.774.762H7.197c-.427 0-.774-.341-.774-.762 0-.42.347-.761.774-.761zM3.986 4.738h11.24c.427 0 .774.341.774.762 0 .386-.291.704-.67.755l-.104.007H3.986c-.428 0-.775-.341-.775-.762 0-.386.292-.704.67-.755l.105-.007h11.24zM.774 0h14.452c.427 0 .774.341.774.762 0 .385-.291.704-.67.754l-.104.007H.774C.347 1.523 0 1.183 0 .762 0 .376.291.057.67.007L.773 0h14.452z" opacity=".6"/>
</svg>
