<svg xmlns="http://www.w3.org/2000/svg" width="18" height="18" viewBox="0 0 18 18">
    <path fill="#D70F51" d="M9 0c4.97 0 9 4.03 9 9s-4.03 9-9 9-9-4.03-9-9 4.03-9 9-9zm0 1.636C4.933 1.636 1.636 4.933 1.636 9S4.933 16.364 9 16.364 16.364 13.067 16.364 9 13.067 1.636 9 1.636zm3.033 4.33c.293.294.317.754.073 1.074l-.073.084L10.157 9l1.876 1.876c.293.293.317.753.073 1.073l-.073.084c-.32.32-.837.32-1.157 0L9 10.157l-1.876 1.876c-.32.32-.838.32-1.157 0-.293-.293-.317-.753-.073-1.073l.073-.084L7.843 9 5.967 7.124c-.293-.293-.317-.753-.073-1.073l.073-.084c.32-.32.837-.32 1.157 0L9 7.843l1.876-1.876c.32-.32.838-.32 1.157 0z"/>
</svg>
