<svg xmlns="http://www.w3.org/2000/svg" width="42" height="42" viewBox="0 0 42 42">
    <g fill="none" fill-rule="evenodd">
        <rect width="41" height="41" x=".5" y=".5" stroke="#4FC1CB" rx="4"/>
        <path fill="#4FC1CB" fill-rule="nonzero" d="M16.545 27.398c1.004 0 1.818.806 1.818 1.801 0 .995-.814 1.801-1.818 1.801s-1.818-.806-1.818-1.8c0-.996.814-1.802 1.818-1.802zm9 0c1.004 0 1.818.806 1.818 1.801 0 .995-.814 1.801-1.818 1.801s-1.818-.806-1.818-1.8c0-.996.814-1.802 1.818-1.802zM13.273 12c.437 0 .818.28.95.683l.03.113.658 3.256H20v1.981h-4.689l1.135 5.616c.054.266.271.465.549.501l.107.006h7.971c.164.004.316-.055.432-.154L27.678 24l-.007.035c-.237 1.184-1.26 2.045-2.446 2.1l-.17.002H17.12c-1.219.023-2.286-.783-2.597-1.934l-.04-.166-2.031-10.056H10c-.552 0-1-.443-1-.99 0-.508.386-.927.883-.984L10 12h3.273zM28 11c.32 0 .585.241.62.552l.005.073v3.75h3.75c.32 0 .585.241.62.552L33 16c0 .32-.241.585-.552.62l-.073.005h-3.75v3.75c0 .32-.241.585-.552.62L28 21c-.32 0-.585-.241-.62-.552l-.005-.073v-3.75h-3.75c-.32 0-.585-.241-.62-.552L23 16c0-.32.241-.585.552-.62l.073-.005h3.75v-3.75c0-.288.195-.531.461-.603l.091-.018L28 11z"/>
    </g>
</svg>
